<?xml version="1.0" standalone="no"?>
<!DOCTYPE svg PUBLIC "-//W3C//DTD SVG 20010904//EN"
 "http://www.w3.org/TR/2001/REC-SVG-20010904/DTD/svg10.dtd">
<svg version="1.0" xmlns="http://www.w3.org/2000/svg"
 width="315.000000pt" height="315.000000pt" viewBox="0 0 315.000000 315.000000"
 preserveAspectRatio="xMidYMid meet">
<metadata>
Created by potrace 1.14, written by Peter Selinger 2001-2017
</metadata>
<g transform="translate(0.000000,315.000000) scale(0.100000,-0.100000)"
fill="#000000" stroke="none">
<path d="M1553 3132 c-17 -11 -128 -232 -201 -403 l-63 -146 -42 -13 c-67 -19
-204 -86 -256 -124 -86 -64 -68 -66 -291 31 -19 9 -95 35 -167 60 -185 61
-190 57 -149 -117 13 -59 105 -361 121 -401 10 -27 -7 -32 -190 -55 -69 -9
-95 -20 -95 -42 0 -18 70 -139 110 -189 22 -28 27 -63 8 -63 -30 0 -145 -68
-197 -115 -159 -148 -185 -380 -59 -536 32 -39 157 -131 197 -144 13 -4 21
-19 26 -51 16 -109 69 -216 140 -285 49 -48 122 -99 140 -99 7 0 25 -17 41
-37 43 -57 86 -92 198 -161 205 -129 408 -203 592 -217 150 -11 319 -13 389
-4 186 26 425 114 562 207 132 91 242 218 273 318 11 36 20 74 20 84 0 14 20
25 83 46 114 37 182 78 252 149 91 92 134 194 129 305 -3 65 -6 81 -30 140
-36 91 -127 202 -227 275 -15 11 -30 33 -33 50 -4 26 2 37 48 85 47 48 114
126 174 198 10 13 27 33 38 45 56 66 67 103 33 116 -30 12 -135 19 -352 27
l-180 5 -37 42 c-20 22 -35 43 -33 47 8 12 17 191 11 215 -8 33 -36 32 -141
-3 l-80 -27 -70 53 c-80 60 -219 131 -319 163 -67 21 -68 22 -93 78 -14 31
-33 75 -44 98 -10 23 -19 44 -19 47 0 12 -141 300 -160 327 -22 30 -36 35 -57
21z"/>
</g>
</svg>
